<svg xmlns="http://www.w3.org/2000/svg" viewBox="0 0 128 128" role="img" aria-labelledby="title desc">
  <title id="title">Codex Sticky Logo</title>
  <desc id="desc">A terminal window with a magnetic sticky transcript mark.</desc>
  <defs>
    <linearGradient id="bg" x1="16" y1="10" x2="112" y2="118" gradientUnits="userSpaceOnUse">
      <stop offset="0" stop-color="#0f766e"/>
      <stop offset="1" stop-color="#111827"/>
    </linearGradient>
    <linearGradient id="magnet" x1="38" y1="35" x2="90" y2="92" gradientUnits="userSpaceOnUse">
      <stop offset="0" stop-color="#fbbf24"/>
      <stop offset="1" stop-color="#f97316"/>
    </linearGradient>
  </defs>
  <rect x="8" y="12" width="112" height="104" rx="24" fill="url(#bg)"/>
  <rect x="22" y="28" width="84" height="72" rx="12" fill="#020617" stroke="#5eead4" stroke-width="3"/>
  <path d="M32 45h64" stroke="#334155" stroke-width="5" stroke-linecap="round"/>
  <path d="M38 62l12 10-12 10" fill="none" stroke="#5eead4" stroke-width="6" stroke-linecap="round" stroke-linejoin="round"/>
  <path d="M58 83h30" stroke="#e5e7eb" stroke-width="6" stroke-linecap="round"/>
  <path d="M44 31v28c0 14 9 25 20 25s20-11 20-25V31H70v28c0 6-3 11-6 11s-6-5-6-11V31z" fill="url(#magnet)" opacity="0.96"/>
  <path d="M44 31h14v14H44zM70 31h14v14H70z" fill="#fef3c7"/>
</svg>
